Simulation
nRows=19
nColumns=15
endheader
time  TH_x TH_y TH_z SC_y  SC_z  SC_x  AC_y  AC_z  AC_x  GH_y  GH_z  GH_yy  EL_x  PS_y
0.0  0.000000  0.000000  0.000000  -36.04719937047317  2.5102050501235595  2.6825015957196787  55.09366820899493  6.257774169286944  -6.438563615962975  -3.911119752570287  5.027266764115666  20.972867904841216  23.057676798660136  0.000000
0.011899999999999999  0.000000  0.000000  0.000000  -36.27894320719026  2.4444017377273335  2.4911523212058735  54.87204163904259  6.407438126323331  -6.515298977471356  -3.5924365767085655  4.910794787708274  20.73443213837174  22.94679802145477  0.000000
0.023799999999999998  0.000000  0.000000  0.000000  -36.271561000059236  2.682125283972561  2.3373271052889764  54.63223830110055  6.465897859186711  -6.414504703335476  -2.933832844662161  4.643450936219772  20.552371354697772  22.756677582427763  0.000000
0.035699999999999996  0.000000  0.000000  0.000000  -36.28399224285677  2.8933285348761624  2.2066775696405805  54.4509704843621  6.51629927501688  -6.284208631743641  -2.212967318409295  4.4390815905334  20.421113780561775  22.621728547078185  0.000000
0.047599999999999996  0.000000  0.000000  0.000000  -36.32582636494328  3.038430381040019  2.089605035306516  54.354141228947086  6.560711707245328  -6.1518205876109056  -1.5785833850186983  4.309940889710209  20.329751597266863  22.52845862257164  0.000000
0.0595  0.000000  0.000000  0.000000  -36.3786714946615  3.120179118987469  1.9921631350271756  54.30559576568196  6.592644123639059  -6.044023467736725  -1.0636267278513374  4.250617613936728  20.31025352133553  22.477816322450607  0.000000
0.07139999999999999  0.000000  0.000000  0.000000  -36.421419811319275  3.1609249237292185  1.9247681560772518  54.284412651649966  6.596587117106561  -5.96917481858825  -0.6844780767714757  4.245554799151203  20.36335790321522  22.465232732412275  0.000000
0.0833  0.000000  0.000000  0.000000  -36.45132314715464  3.1813632823533045  1.8771773700255803  54.27524381341465  6.57461829917795  -5.914911938880003  -0.4328929749647775  4.289418221509501  20.49029542843064  22.48600836076691  0.000000
0.09519999999999999  0.000000  0.000000  0.000000  -36.470070269378134  3.190461879820027  1.8411036282250683  54.2693186104856  6.531888768350343  -5.877909158806956  -0.30259474501315603  4.380752076402207  20.679989408870888  22.541723903476914  0.000000
0.10709999999999999  0.000000  0.000000  0.000000  -36.48226044629773  3.1938773493711006  1.8122144300726086  54.26063544428787  6.4706034826144  -5.8533872172360395  -0.2830668329772869  4.5203638544089095  20.920755749974393  22.62378785628914  0.000000
0.119  0.000000  0.000000  0.000000  -36.49082842661999  3.194919935809582  1.7874652550653345  54.24846169213588  6.392932797481153  -5.838021153370287  -0.3658963864656454  4.708717945909494  21.19648018132627  22.7243874842123  0.000000
0.1309  0.000000  0.000000  0.000000  -36.49828206134511  3.195675414654434  1.7664246627014284  54.231412806702735  6.300724007212322  -5.829101167159449  -0.5392078747538512  4.946349313107015  21.494083547103838  22.83636388635068  0.000000
0.14279999999999998  0.000000  0.000000  0.000000  -36.50553994653322  3.197472949695867  1.749062712042156  54.21147898001582  6.1962596141085164  -5.824645250844077  -0.7919968552401694  5.233452420450425  21.800074407791524  22.954724848978902  0.000000
0.15469999999999998  0.000000  0.000000  0.000000  -36.51306944473287  3.2011039870150366  1.7365313967230078  54.18896576348841  6.08198724049536  -5.823138645032722  -1.1113014970347186  5.5702023986269245  22.10414842888053  23.076674112860978  0.000000
0.1666  0.000000  0.000000  0.000000  -36.52101945514007  3.2067665439509105  1.7297096356316095  54.16685621289264  5.96079249356983  -5.823516337547224  -1.4856895475981102  5.9565674905938435  22.39587987727197  23.201217612851813  0.000000
0.1785  0.000000  0.000000  0.000000  -36.5295793033974  3.2145795047712236  1.7295607653644782  54.146413319292826  5.835545440417634  -5.82438970067392  -1.9032209070155957  6.3922331604408225  22.667095363636484  23.328021395507474  0.000000
0.19039999999999999  0.000000  0.000000  0.000000  -36.53903690877067  3.224212428466308  1.7364227080235823  54.13085533730907  5.7093516574861685  -5.824792502880028  -2.353245527146574  6.876786827939365  22.910049035563603  23.457446279794215  0.000000
0.20229999999999998  0.000000  0.000000  0.000000  -36.54958605814651  3.2356720879278056  1.7505458760860315  54.1210637482208  5.585092917543434  -5.823455327912495  -2.825050210324508  7.409189130530508  23.11909457428506  23.590109383451342  0.000000
0.21419999999999997  0.000000  0.000000  0.000000  -36.56182822480646  3.2484787985040553  1.771062655339792  54.11976831231366  5.465835780517053  -5.819210651856981  -3.309603916295874  7.988581514598381  23.288822091233737  23.726293352083896  0.000000
